FiraMonoOsage-Regular.ufo
<glyph name="quotesingle" format="1">
  <advance width="600"/>
  <unicode hex="0027"/>
  <outline>
    <contour>
      <point x="339" y="477" type="line"/>
      <point x="355" y="739" type="line"/>
      <point x="245" y="739" type="line"/>
      <point x="261" y="477" type="line"/>
    </contour>
  </outline>
</glyph>
<glyph name="hyphen" format="1">
  <advance width="600"/>
  <unicode hex="002D"/>
  <outline>
    <contour>
      <point x="477" y="274" type="line"/>
      <point x="477" y="352" type="line"/>
      <point x="123" y="352" type="line"/>
      <point x="123" y="274" type="line"/>
    </contour>
  </outline>
</glyph>
<glyph name="slash" format="1">
  <advance width="600"/>
  <unicode hex="002F"/>
  <outline>
    <contour>
      <point x="550" y="775" type="line"/>
      <point x="477" y="810" type="line"/>
      <point x="50" y="-71" type="line"/>
      <point x="124" y="-104" type="line"/>
    </contour>
  </outline>
</glyph>
<glyph name="v" format="1">
  <advance width="600"/>
  <unicode hex="0076"/>
  <outline>
    <contour>
      <point x="448" y="527" type="line"/>
      <point x="302" y="81" type="line"/>
      <point x="155" y="527" type="line"/>
      <point x="57" y="527" type="line"/>
      <point x="246" y="0" type="line"/>
      <point x="353" y="0" type="line"/>
      <point x="543" y="527" type="line"/>
    </contour>
    <contour>
      <point x="300" y="0" type="move" name="bottom"/>
    </contour>
    <contour>
      <point x="300" y="527" type="move" name="top"/>
    </contour>
  </outline>
</glyph>
<glyph name="uni00AD" format="1">
  <advance width="600"/>
  <unicode hex="00AD"/>
  <outline>
    <contour>
      <point x="457" y="274" type="line"/>
      <point x="457" y="352" type="line"/>
      <point x="143" y="352" type="line"/>
      <point x="143" y="274" type="line"/>
    </contour>
  </outline>
</glyph>
<glyph name="Yr" format="1">
  <advance width="600"/>
  <unicode hex="01A6"/>
  <outline>
    <contour>
      <point x="597" y="-136" type="line"/>
      <point x="406" y="152" type="line"/>
      <point x="303" y="152" type="line"/>
      <point x="484" y="-136" type="line"/>
    </contour>
    <component base="Thorn"/>
    <contour>
      <point x="300" y="689" type="move" name="top"/>
    </contour>
    <contour>
      <point x="300" y="0" type="move" name="bottom"/>
    </contour>
  </outline>
</glyph>
<glyph name="uni0304" format="1">
  <advance width="600"/>
  <unicode hex="0304"/>
  <outline>
    <component base="macron" xOffset="1" yOffset="-52"/>
    <contour>
      <point x="300" y="527" type="move" name="_top"/>
    </contour>
  </outline>
</glyph>
<glyph name="endash" format="1">
  <advance width="600"/>
  <unicode hex="2013"/>
  <outline>
    <contour>
      <point x="568" y="274" type="line"/>
      <point x="568" y="352" type="line"/>
      <point x="32" y="352" type="line"/>
      <point x="32" y="274" type="line"/>
    </contour>
  </outline>
</glyph>
<glyph name="guilsinglleft" format="1">
  <advance width="600"/>
  <unicode hex="2039"/>
  <outline>
    <contour>
      <point x="282" y="293" type="line"/>
      <point x="415" y="500" type="line"/>
      <point x="360" y="535" type="line"/>
      <point x="185" y="325" type="line"/>
      <point x="185" y="260" type="line"/>
      <point x="360" y="51" type="line"/>
      <point x="415" y="86" type="line"/>
    </contour>
  </outline>
</glyph>
<glyph name="Alpha-latin" format="1">
  <advance width="600"/>
  <unicode hex="2C6D"/>
  <outline>
    <contour>
      <point x="515" y="-13" type="curve"/>
      <point x="547" y="63" type="line"/>
      <point x="517" y="74"/>
      <point x="504" y="89"/>
      <point x="501" y="116" type="curve" smooth="yes"/>
      <point x="475" y="320" type="line"/>
      <point x="530" y="689" type="line"/>
      <point x="446" y="689" type="line"/>
      <point x="419" y="526" type="line"/>
      <point x="398" y="649"/>
      <point x="344" y="701"/>
      <point x="254" y="701" type="curve" smooth="yes"/>
      <point x="104" y="701"/>
      <point x="46" y="492"/>
      <point x="46" y="329" type="curve" smooth="yes"/>
      <point x="46" y="148"/>
      <point x="138" y="-12"/>
      <point x="258" y="-12" type="curve" smooth="yes"/>
      <point x="347" y="-12"/>
      <point x="385" y="55"/>
      <point x="412" y="138" type="curve"/>
      <point x="421" y="82" type="line" smooth="yes"/>
      <point x="430" y="25"/>
      <point x="471" y="-6"/>
    </contour>
    <contour>
      <point x="258" y="66" type="curve" smooth="yes"/>
      <point x="180" y="66"/>
      <point x="144" y="182"/>
      <point x="144" y="329" type="curve" smooth="yes"/>
      <point x="144" y="464"/>
      <point x="173" y="628"/>
      <point x="262" y="628" type="curve" smooth="yes"/>
      <point x="326" y="628"/>
      <point x="368" y="494"/>
      <point x="395" y="337" type="curve"/>
      <point x="362" y="164"/>
      <point x="316" y="66"/>
    </contour>
    <contour>
      <point x="298" y="0" type="move" name="bottom"/>
    </contour>
    <contour>
      <point x="277" y="689" type="move" name="top"/>
    </contour>
  </outline>
</glyph>
<glyph name="u104B0" format="1">
  <advance width="600"/>
  <unicode hex="104B0"/>
  <outline>
    <component base="Lambda"/>
    <contour>
      <point x="548" y="0" type="move" name="ogonek"/>
    </contour>
    <contour>
      <point x="300" y="689" type="move" name="top"/>
    </contour>
    <contour>
      <point x="196" y="689" type="move" name="topleft"/>
    </contour>
    <contour>
      <point x="298" y="0" type="move" name="bottom"/>
    </contour>
  </outline>
</glyph>
<glyph name="u104B1" format="1">
  <advance width="600"/>
  <unicode hex="104B1"/>
  <outline>
    <component base="u104B0"/>
    <component base="quotesingle" xOffset="598" yOffset="739" xScale="-1" yScale="-1"/>
    <contour>
      <point x="548" y="0" type="move" name="ogonek"/>
    </contour>
    <contour>
      <point x="300" y="689" type="move" name="top"/>
    </contour>
    <contour>
      <point x="196" y="689" type="move" name="topleft"/>
    </contour>
    <contour>
      <point x="298" y="0" type="move" name="bottom"/>
    </contour>
  </outline>
</glyph>
<glyph name="u104B7" format="1">
  <advance width="600"/>
  <unicode hex="104B7"/>
  <outline>
    <component base="Alpha-latin"/>
    <contour>
      <point x="298" y="0" type="move" name="bottom"/>
    </contour>
    <contour>
      <point x="277" y="689" type="move" name="top"/>
    </contour>
  </outline>
</glyph>
<glyph name="u104B8" format="1">
  <advance width="600"/>
  <unicode hex="104B8"/>
  <outline>
    <component base="u104B7"/>
    <component base="dotaccent" xOffset="-32" yOffset="-374"/>
    <contour>
      <point x="298" y="0" type="move" name="bottom"/>
    </contour>
    <contour>
      <point x="277" y="689" type="move" name="top"/>
    </contour>
  </outline>
</glyph>
<glyph name="u104BB" format="1">
  <advance width="600"/>
  <unicode hex="104BB"/>
  <outline>
    <contour>
      <point x="198" y="0" type="line"/>
      <point x="172" y="104"/>
      <point x="145" y="189"/>
      <point x="145" y="358" type="curve"/>
      <point x="145" y="501"/>
      <point x="191" y="623"/>
      <point x="300" y="623" type="curve" smooth="yes"/>
      <point x="409" y="623"/>
      <point x="454" y="502"/>
      <point x="457" y="358" type="curve"/>
      <point x="453" y="189"/>
      <point x="427" y="104"/>
      <point x="398" y="0" type="curve"/>
      <point x="490" y="0" type="line"/>
      <point x="520" y="124"/>
      <point x="553" y="229"/>
      <point x="553" y="363" type="curve"/>
      <point x="553" y="567"/>
      <point x="464" y="701"/>
      <point x="300" y="701" type="curve" smooth="yes"/>
      <point x="131" y="701"/>
      <point x="44" y="541"/>
      <point x="44" y="358" type="curve"/>
      <point x="44" y="229"/>
      <point x="67" y="124"/>
      <point x="106" y="0" type="curve"/>
    </contour>
    <contour>
      <point x="300" y="689" type="move" name="top"/>
    </contour>
    <contour>
      <point x="300" y="0" type="move" name="bottom"/>
    </contour>
    <contour>
      <point x="104" y="689" type="move" name="topleft"/>
    </contour>
  </outline>
</glyph>
<glyph name="u104BC" format="1">
  <advance width="600"/>
  <unicode hex="104BC"/>
  <outline>
    <contour>
      <point x="281" y="392" type="line"/>
      <point x="537" y="689" type="line"/>
      <point x="429" y="689" type="line"/>
      <point x="141" y="337" type="line"/>
    </contour>
    <component base="uni04BA"/>
    <component base="hookHELPER.case" xOffset="255"/>
    <contour>
      <point x="304" y="689" type="move" name="top"/>
    </contour>
    <contour>
      <point x="304" y="0" type="move" name="bottom"/>
    </contour>
  </outline>
</glyph>
<glyph name="u104BD" format="1">
  <advance width="600"/>
  <unicode hex="104BD"/>
  <outline>
    <contour>
      <point x="240" y="548" type="line"/>
      <point x="240" y="617" type="line"/>
      <point x="15" y="617" type="line"/>
      <point x="15" y="548" type="line"/>
    </contour>
    <component base="u104BC"/>
    <contour>
      <point x="304" y="0" type="move" name="bottom"/>
    </contour>
    <contour>
      <point x="304" y="689" type="move" name="top"/>
    </contour>
  </outline>
</glyph>
<glyph name="u104BE" format="1">
  <advance width="600"/>
  <unicode hex="104BE"/>
  <outline>
    <contour>
      <point x="520" y="0" type="line"/>
      <point x="520" y="235" type="line" smooth="yes"/>
      <point x="520" y="371"/>
      <point x="444" y="452"/>
      <point x="322" y="452" type="curve" smooth="yes"/>
      <point x="239" y="452"/>
      <point x="181" y="421"/>
      <point x="134" y="368" type="curve"/>
      <point x="134" y="284" type="line"/>
      <point x="179" y="338"/>
      <point x="227" y="371"/>
      <point x="304" y="371" type="curve" smooth="yes"/>
      <point x="385" y="371"/>
      <point x="425" y="323"/>
      <point x="425" y="234" type="curve" smooth="yes"/>
      <point x="425" y="0" type="line"/>
    </contour>
    <contour>
      <point x="461" y="-213"/>
      <point x="520" y="-161"/>
      <point x="520" y="-57" type="curve" smooth="yes"/>
      <point x="520" y="1" type="line"/>
      <point x="425" y="1" type="line"/>
      <point x="425" y="-63" type="line" smooth="yes"/>
      <point x="425" y="-114"/>
      <point x="403" y="-137"/>
      <point x="364" y="-138" type="curve" smooth="yes"/>
      <point x="331" y="-139"/>
      <point x="287" y="-120"/>
      <point x="287" y="-89" type="curve" smooth="yes"/>
      <point x="287" y="-46"/>
      <point x="311" y="-31"/>
      <point x="335" y="-31" type="curve"/>
      <point x="424" y="-30"/>
      <point x="487" y="-74"/>
      <point x="554" y="-114" type="curve"/>
      <point x="594" y="-56" type="line"/>
      <point x="498" y="15"/>
      <point x="415" y="41"/>
      <point x="337" y="41" type="curve"/>
      <point x="259" y="41"/>
      <point x="209" y="-11"/>
      <point x="209" y="-89" type="curve" smooth="yes"/>
      <point x="209" y="-160"/>
      <point x="285" y="-213"/>
      <point x="369" y="-213" type="curve" smooth="yes"/>
    </contour>
    <contour>
      <point x="175" y="0" type="line"/>
      <point x="175" y="689" type="line"/>
      <point x="80" y="689" type="line"/>
      <point x="80" y="0" type="line"/>
    </contour>
    <contour>
      <point x="258" y="392" type="line"/>
      <point x="514" y="690" type="line"/>
      <point x="406" y="690" type="line"/>
      <point x="118" y="337" type="line"/>
    </contour>
    <contour>
      <point x="304" y="-202" type="move" name="bottom"/>
    </contour>
    <contour>
      <point x="581" y="0" type="move" name="bottomright"/>
    </contour>
    <contour>
      <point x="304" y="689" type="move" name="top"/>
    </contour>
  </outline>
</glyph>
<glyph name="u104C2" format="1">
  <advance width="600"/>
  <unicode hex="104C2"/>
  <outline>
    <component base="O"/>
    <contour>
      <point x="300" y="689" type="move" name="top"/>
    </contour>
    <contour>
      <point x="300" y="0" type="move" name="bottom"/>
    </contour>
    <contour>
      <point x="104" y="689" type="move" name="topleft"/>
    </contour>
  </outline>
</glyph>
<glyph name="u104C3" format="1">
  <advance width="600"/>
  <unicode hex="104C3"/>
  <outline>
    <component base="O"/>
    <component base="dotaccent" yOffset="-368"/>
    <contour>
      <point x="300" y="689" type="move" name="top"/>
    </contour>
    <contour>
      <point x="300" y="0" type="move" name="bottom"/>
    </contour>
    <contour>
      <point x="104" y="689" type="move" name="topleft"/>
    </contour>
  </outline>
</glyph>
<glyph name="u104C4" format="1">
  <advance width="600"/>
  <unicode hex="104C4"/>
  <outline>
    <contour>
      <point x="197" y="0" type="line"/>
      <point x="197" y="181" type="line"/>
      <point x="234" y="147"/>
      <point x="275" y="130"/>
      <point x="338" y="130" type="curve" smooth="yes"/>
      <point x="471" y="130"/>
      <point x="559" y="218"/>
      <point x="559" y="350" type="curve" smooth="yes"/>
      <point x="559" y="556"/>
      <point x="377" y="568"/>
      <point x="350" y="568" type="curve" smooth="yes"/>
      <point x="328" y="568"/>
      <point x="258" y="569"/>
      <point x="197" y="531" type="curve"/>
      <point x="197" y="689" type="line"/>
      <point x="102" y="689" type="line"/>
      <point x="102" y="0" type="line"/>
    </contour>
    <contour>
      <point x="276" y="203"/>
      <point x="225" y="237"/>
      <point x="197" y="269" type="curve"/>
      <point x="197" y="451" type="line"/>
      <point x="226" y="483"/>
      <point x="279" y="497"/>
      <point x="328" y="497" type="curve" smooth="yes"/>
      <point x="380" y="497"/>
      <point x="458" y="463"/>
      <point x="458" y="350" type="curve" smooth="yes"/>
      <point x="458" y="245"/>
      <point x="403" y="203"/>
      <point x="325" y="203" type="curve" smooth="yes"/>
    </contour>
    <contour>
      <point x="300" y="689" type="move" name="top"/>
    </contour>
    <contour>
      <point x="300" y="0" type="move" name="bottom"/>
    </contour>
  </outline>
</glyph>
<glyph name="u104C5" format="1">
  <advance width="600"/>
  <unicode hex="104C5"/>
  <outline>
    <contour>
      <point x="185" y="388" type="line"/>
      <point x="19" y="388" type="line"/>
      <point x="19" y="318" type="line"/>
      <point x="90" y="318" type="line"/>
      <point x="339" y="318" type="line"/>
      <point x="339" y="388" type="line"/>
    </contour>
    <component base="u104C4"/>
    <contour>
      <point x="300" y="0" type="move" name="bottom"/>
    </contour>
    <contour>
      <point x="300" y="689" type="move" name="top"/>
    </contour>
  </outline>
</glyph>
<glyph name="u104C8" format="1">
  <advance width="600"/>
  <unicode hex="104C8"/>
  <outline>
    <contour>
      <point x="241" y="0" type="line" smooth="yes"/>
      <point x="387" y="0"/>
      <point x="555" y="60"/>
      <point x="555" y="348" type="curve" smooth="yes"/>
      <point x="555" y="634"/>
      <point x="393" y="689"/>
      <point x="230" y="689" type="curve" smooth="yes"/>
      <point x="80" y="689" type="line"/>
      <point x="80" y="613" type="line"/>
      <point x="251" y="613" type="line" smooth="yes"/>
      <point x="345" y="613"/>
      <point x="454" y="582"/>
      <point x="454" y="348" type="curve" smooth="yes"/>
      <point x="454" y="125"/>
      <point x="350" y="75"/>
      <point x="252" y="75" type="curve" smooth="yes"/>
      <point x="107" y="75" type="line"/>
      <point x="108" y="0" type="line"/>
    </contour>
    <contour>
      <point x="175" y="0" type="line"/>
      <point x="366" y="631" type="line"/>
      <point x="272" y="631" type="line"/>
      <point x="70" y="0" type="line"/>
    </contour>
    <contour>
      <point x="286" y="0" type="move" name="bottom"/>
    </contour>
    <contour>
      <point x="300" y="345" type="move" name="center"/>
    </contour>
    <contour>
      <point x="286" y="689" type="move" name="top"/>
    </contour>
  </outline>
</glyph>
<glyph name="u104C9" format="1">
  <advance width="600"/>
  <unicode hex="104C9"/>
  <outline>
    <contour>
      <point x="373" y="318" type="line"/>
      <point x="373" y="387" type="line"/>
      <point x="80" y="387" type="line"/>
      <point x="80" y="318" type="line"/>
    </contour>
    <component base="u104C8"/>
  </outline>
</glyph>
<glyph name="u104CE" format="1">
  <advance width="600"/>
  <unicode hex="104CE"/>
  <outline>
    <component base="U"/>
    <contour>
      <point x="389" y="0" type="move" name="ogonek"/>
    </contour>
    <contour>
      <point x="300" y="0" type="move" name="bottom"/>
    </contour>
    <contour>
      <point x="300" y="689" type="move" name="top"/>
    </contour>
  </outline>
</glyph>
<glyph name="u104D0" format="1">
  <advance width="600"/>
  <unicode hex="104D0"/>
  <outline>
    <contour>
      <point x="252" y="689" type="line"/>
      <point x="252" y="539" type="line"/>
      <point x="89" y="524"/>
      <point x="55" y="431"/>
      <point x="47" y="302" type="curve" smooth="yes"/>
      <point x="28" y="0" type="line"/>
      <point x="118" y="0" type="line"/>
      <point x="131" y="298" type="line" smooth="yes"/>
      <point x="135" y="395"/>
      <point x="145" y="451"/>
      <point x="254" y="462" type="curve"/>
      <point x="254" y="0" type="line"/>
      <point x="345" y="0" type="line"/>
      <point x="345" y="463" type="line"/>
      <point x="457" y="452"/>
      <point x="459" y="395"/>
      <point x="464" y="298" type="curve" smooth="yes"/>
      <point x="478" y="0" type="line"/>
      <point x="572" y="0" type="line"/>
      <point x="554" y="302" type="line" smooth="yes"/>
      <point x="546" y="431"/>
      <point x="513" y="526"/>
      <point x="347" y="540" type="curve"/>
      <point x="347" y="689" type="line"/>
    </contour>
    <contour>
      <point x="300" y="0" type="move" name="bottom"/>
    </contour>
    <contour>
      <point x="300" y="689" type="move" name="top"/>
    </contour>
  </outline>
</glyph>
<glyph name="u104D1" format="1">
  <advance width="600"/>
  <unicode hex="104D1"/>
  <outline>
    <contour>
      <point x="348" y="0" type="line"/>
      <point x="348" y="192" type="line"/>
      <point x="511" y="207"/>
      <point x="539" y="301"/>
      <point x="558" y="429" type="curve" smooth="yes"/>
      <point x="596" y="689" type="line"/>
      <point x="509" y="689" type="line"/>
      <point x="476" y="433" type="line" smooth="yes"/>
      <point x="463" y="336"/>
      <point x="455" y="280"/>
      <point x="346" y="269" type="curve"/>
      <point x="346" y="689" type="line"/>
      <point x="255" y="689" type="line"/>
      <point x="255" y="268" type="line"/>
      <point x="143" y="279"/>
      <point x="139" y="336"/>
      <point x="128" y="433" type="curve" smooth="yes"/>
      <point x="98" y="689" type="line"/>
      <point x="4" y="689" type="line"/>
      <point x="40" y="429" type="line" smooth="yes"/>
      <point x="58" y="300"/>
      <point x="87" y="205"/>
      <point x="253" y="191" type="curve"/>
      <point x="253" y="0" type="line"/>
    </contour>
    <contour>
      <point x="300" y="0" type="move" name="bottom"/>
    </contour>
    <contour>
      <point x="300" y="689" type="move" name="top"/>
    </contour>
  </outline>
</glyph>
<glyph name="u104D2" format="1">
  <advance width="600"/>
  <unicode hex="104D2"/>
  <outline>
    <contour>
      <point x="183" y="0" type="line"/>
      <point x="531" y="612" type="line"/>
      <point x="531" y="689" type="line"/>
      <point x="104" y="689" type="line"/>
      <point x="104" y="609" type="line"/>
      <point x="428" y="609" type="line"/>
      <point x="78" y="0" type="line"/>
    </contour>
    <contour>
      <point x="318" y="689" type="move" name="top"/>
    </contour>
    <contour>
      <point x="300" y="0" type="move" name="bottom"/>
    </contour>
  </outline>
</glyph>
<glyph name="u104D3" format="1">
  <advance width="600"/>
  <unicode hex="104D3"/>
  <outline>
    <contour>
      <point x="185" y="0" type="line"/>
      <point x="209" y="57"/>
      <point x="251" y="86"/>
      <point x="312" y="86" type="curve" smooth="yes"/>
      <point x="374" y="86"/>
      <point x="415" y="57"/>
      <point x="440" y="0" type="curve"/>
      <point x="537" y="0" type="line"/>
      <point x="498" y="102"/>
      <point x="423" y="164"/>
      <point x="312" y="164" type="curve" smooth="yes"/>
      <point x="202" y="164"/>
      <point x="127" y="102"/>
      <point x="88" y="0" type="curve"/>
    </contour>
    <component base="u104D2"/>
    <contour>
      <point x="309" y="689" type="move" name="top"/>
    </contour>
    <contour>
      <point x="309" y="0" type="move" name="bottom"/>
    </contour>
  </outline>
</glyph>
<glyph name="u104DA" format="1">
  <advance width="600"/>
  <unicode hex="104DA"/>
  <outline>
    <component base="u104D8"/>
    <component base="dotaccent" xOffset="-2" yOffset="-600"/>
    <contour>
      <point x="298" y="0" type="move" name="bottom"/>
    </contour>
    <contour>
      <point x="298" y="527" type="move" name="top"/>
    </contour>
  </outline>
</glyph>
<glyph name="u104DB" format="1">
  <advance width="600"/>
  <unicode hex="104DB"/>
  <outline>
    <contour>
      <point x="358" y="530" type="line" smooth="yes"/>
      <point x="320" y="641"/>
      <point x="258" y="726"/>
      <point x="116" y="740" type="curve"/>
      <point x="103" y="668" type="line"/>
      <point x="211" y="650"/>
      <point x="243" y="607"/>
      <point x="271" y="527" type="curve"/>
      <point x="240" y="527" type="line"/>
      <point x="58" y="0" type="line"/>
      <point x="156" y="0" type="line"/>
      <point x="302" y="459" type="line"/>
      <point x="447" y="0" type="line"/>
      <point x="542" y="0" type="line"/>
    </contour>
    <contour>
      <point x="302" y="0" type="move" name="bottom"/>
    </contour>
    <contour>
      <point x="300" y="729" type="move" name="top "/>
    </contour>
  </outline>
</glyph>
<glyph name="u104E0" format="1">
  <advance width="600"/>
  <unicode hex="104E0"/>
  <outline>
    <component base="alpha"/>
    <contour>
      <point x="298" y="0" type="move" name="bottom"/>
    </contour>
    <contour>
      <point x="277" y="527" type="move" name="top"/>
    </contour>
  </outline>
</glyph>
<glyph name="u104EB" format="1">
  <advance width="600"/>
  <unicode hex="104EB"/>
  <outline>
    <component base="u104EA"/>
    <component base="dotaccent" xOffset="2" yOffset="-449"/>
    <contour>
      <point x="300" y="527" type="move" name="top"/>
    </contour>
    <contour>
      <point x="300" y="0" type="move" name="bottom"/>
    </contour>
  </outline>
</glyph>
<glyph name="u104F8" format="1">
  <advance width="600"/>
  <unicode hex="104F8"/>
  <outline>
    <contour>
      <point x="259" y="739" type="line"/>
      <point x="260" y="538" type="line"/>
      <point x="104" y="526"/>
      <point x="48" y="447"/>
      <point x="48" y="345" type="curve" smooth="yes"/>
      <point x="48" y="0" type="line"/>
      <point x="132" y="0" type="line"/>
      <point x="132" y="338" type="line" smooth="yes"/>
      <point x="132" y="420"/>
      <point x="163" y="454"/>
      <point x="260" y="465" type="curve"/>
      <point x="259" y="0" type="line"/>
      <point x="341" y="0" type="line"/>
      <point x="341" y="465" type="line"/>
      <point x="438" y="454"/>
      <point x="468" y="420"/>
      <point x="468" y="338" type="curve" smooth="yes"/>
      <point x="468" y="0" type="line"/>
      <point x="552" y="0" type="line"/>
      <point x="552" y="345" type="line" smooth="yes"/>
      <point x="552" y="447"/>
      <point x="497" y="526"/>
      <point x="341" y="538" type="curve"/>
      <point x="341" y="748" type="line"/>
    </contour>
    <contour>
      <point x="302" y="739" type="move" name="top"/>
    </contour>
    <contour>
      <point x="302" y="0" type="move" name="bottom"/>
    </contour>
  </outline>
</glyph>
<glyph name="u104F9" format="1">
  <advance width="600"/>
  <unicode hex="104F9"/>
  <outline>
    <contour>
      <point x="343" y="-202" type="line"/>
      <point x="342" y="-17" type="line"/>
      <point x="498" y="-5"/>
      <point x="562" y="82"/>
      <point x="562" y="184" type="curve" smooth="yes"/>
      <point x="562" y="527" type="line"/>
      <point x="473" y="527" type="line"/>
      <point x="473" y="191" type="line" smooth="yes"/>
      <point x="473" y="109"/>
      <point x="439" y="67"/>
      <point x="342" y="56" type="curve"/>
      <point x="343" y="527" type="line"/>
      <point x="259" y="527" type="line"/>
      <point x="259" y="56" type="line"/>
      <point x="162" y="67"/>
      <point x="129" y="109"/>
      <point x="129" y="191" type="curve" smooth="yes"/>
      <point x="129" y="527" type="line"/>
      <point x="40" y="527" type="line"/>
      <point x="40" y="184" type="line" smooth="yes"/>
      <point x="40" y="82"/>
      <point x="103" y="-5"/>
      <point x="259" y="-17" type="curve"/>
      <point x="259" y="-213" type="line"/>
    </contour>
    <contour>
      <point x="300" y="527" type="move" name="top"/>
    </contour>
    <contour>
      <point x="300" y="-202" type="move" name="bottom"/>
    </contour>
  </outline>
</glyph>
<glyph name="acute.case" format="1">
  <advance width="600"/>
  <outline>
    <contour>
      <point x="180" y="804" type="line"/>
      <point x="204" y="755" type="line"/>
      <point x="420" y="834" type="line"/>
      <point x="380" y="911" type="line"/>
    </contour>
    <contour>
      <point x="298" y="689" type="move" name="_top"/>
    </contour>
  </outline>
</glyph>
